<svg width="86" height="86" viewBox="0 0 86 86" fill="none" xmlns="http://www.w3.org/2000/svg">
<path d="M26.875 21.7517C31.6186 19.3127 37.1258 17.9167 43 17.9167C48.8742 17.9167 54.3814 19.3127 59.125 21.7517M75.25 46.5833C75.25 62.4156 60.8111 75.25 43 75.25C25.1889 75.25 10.75 62.4156 10.75 46.5833H75.25Z" stroke="#4D4D4D" stroke-width="2.5" stroke-linecap="round"/>
<path d="M10.75 46.5833V15.2079C10.75 12.1063 14.423 10.4695 16.7293 12.5434L26.875 21.6666" stroke="#4D4D4D" stroke-width="2.5" stroke-linecap="round" stroke-linejoin="round"/>
<path d="M75.25 46.5833V15.2079C75.25 12.1063 71.5769 10.4695 69.2707 12.5434L59.125 21.6666" stroke="#4D4D4D" stroke-width="2.5" stroke-linecap="round" stroke-linejoin="round"/>
<path d="M53.7498 43C55.7289 43 57.3332 41.3957 57.3332 39.4167C57.3332 37.4377 55.7289 35.8333 53.7498 35.8333C51.7708 35.8333 50.1665 37.4377 50.1665 39.4167C50.1665 41.3957 51.7708 43 53.7498 43Z" fill="#4D4D4D"/>
<path d="M32.2498 43C34.2289 43 35.8332 41.3957 35.8332 39.4167C35.8332 37.4377 34.2289 35.8333 32.2498 35.8333C30.2708 35.8333 28.6665 37.4377 28.6665 39.4167C28.6665 41.3957 30.2708 43 32.2498 43Z" fill="#4D4D4D"/>
<path d="M42.9998 53.75C44.9789 53.75 46.5832 52.1457 46.5832 50.1667C46.5832 48.1877 44.9789 46.5833 42.9998 46.5833C41.0208 46.5833 39.4165 48.1877 39.4165 50.1667C39.4165 52.1457 41.0208 53.75 42.9998 53.75Z" fill="#4D4D4D"/>
<path d="M28.6665 53.75L7.1665 55.5417" stroke="#4D4D4D" stroke-width="2.5" stroke-linecap="round" stroke-linejoin="round"/>
<path d="M34.0415 62.7083L12.5415 73.4583" stroke="#4D4D4D" stroke-width="2.5" stroke-linecap="round" stroke-linejoin="round"/>
<path d="M57.333 53.75L78.833 55.5417" stroke="#4D4D4D" stroke-width="2.5" stroke-linecap="round" stroke-linejoin="round"/>
<path d="M51.958 62.7083L73.458 73.4583" stroke="#4D4D4D" stroke-width="2.5" stroke-linecap="round" stroke-linejoin="round"/>
</svg>
